<svg version="1.0" xmlns="http://www.w3.org/2000/svg"
 width="300.000000pt" height="308.000000pt" viewBox="0 0 300.000000 308.000000"
 preserveAspectRatio="xMidYMid meet">

<g transform="translate(0.000000,308.000000) scale(0.100000,-0.100000)"
fill="#414695" stroke="none">
<path d="M1510 3071 c-100 -32 -187 -131 -239 -271 -44 -120 -55 -188 -55
-360 0 -91 6 -214 13 -274 l13 -109 -144 -141 c-158 -154 -220 -234 -274 -351
-44 -96 -64 -185 -64 -295 0 -109 18 -181 76 -298 106 -217 323 -352 565 -352
l86 0 12 -70 c40 -243 19 -339 -91 -412 -45 -31 -104 -37 -155 -17 l-28 11 40
18 c52 22 102 79 111 126 13 73 -42 171 -113 200 -66 28 -160 7 -210 -47 -80
-87 -67 -244 28 -338 57 -58 131 -86 224 -85 99 1 155 23 220 89 95 94 119
202 91 412 -9 67 -16 126 -16 131 0 5 34 26 76 46 131 65 244 194 284 325 69
221 -31 450 -239 550 -71 33 -83 36 -170 36 -107 0 -101 -5 -116 102 l-6 48
118 94 c65 52 291 234 502 405 l384 310 62 0 c61 1 64 2 126 57 35 31 83 68
105 82 77 48 105 110 78 176 -23 57 -57 76 -131 72 -13 -1 -63 -36 -115 -82
-147 -128 -158 -139 -158 -162 -1 -61 -4 -64 -610 -533 -135 -105 -345 -265
-467 -356 -314 -237 -395 -313 -451 -425 -14 -29 -29 -53 -33 -53 -14 0 22
125 54 184 51 98 179 221 397 384 107 80 227 169 265 198 104 77 191 172 225
247 115 245 57 602 -115 702 -46 27 -116 39 -155 26z m1204 -189 c5 -9 -108
-102 -124 -102 -18 0 -11 15 33 63 40 43 78 60 91 39z m-999 -92 c39 -43 -13
-222 -107 -365 -29 -44 -97 -125 -151 -180 -120 -123 -121 -123 -115 74 4 116
8 146 31 203 47 122 127 226 205 267 50 27 113 27 137 1z m-375 -1180 c6 -22
8 -45 5 -50 -3 -5 -30 -26 -60 -45 -120 -80 -195 -219 -195 -361 0 -108 58
-222 132 -260 17 -9 28 -12 26 -7 -60 121 -70 181 -44 261 19 55 78 129 130
161 18 12 36 21 39 21 3 0 10 -24 16 -52 15 -72 81 -501 81 -523 0 -15 -10
-17 -82 -13 -113 5 -205 47 -283 129 -78 82 -107 149 -113 263 -3 75 0 102 18
156 39 117 116 216 248 319 30 22 58 41 63 41 4 0 13 -18 19 -40z m276 -279
c124 -56 192 -188 164 -319 -7 -28 -29 -78 -50 -111 -37 -57 -109 -121 -135
-121 -14 0 -31 82 -70 345 -13 94 -27 182 -30 198 -4 26 -3 27 38 27 23 0 60
-9 83 -19z"/>
<path d="M579 2067 c-13 -7 -26 -23 -30 -37 -4 -14 -7 -189 -8 -390 -1 -273 2
-369 11 -378 7 -7 29 -12 49 -12 74 0 69 -31 69 399 0 212 -4 391 -8 398 -14
22 -57 32 -83 20z"/>
<path d="M2394 1986 c-18 -14 -19 -35 -22 -768 -2 -414 0 -781 3 -814 5 -52
10 -63 31 -72 29 -14 68 -1 83 27 7 13 11 157 11 420 0 379 -1 401 -18 401
-48 0 -57 56 -12 71 l30 11 0 349 c0 336 -1 350 -20 369 -23 23 -58 26 -86 6z"/>
<path d="M757 1863 c-4 -3 -7 -37 -7 -73 0 -70 13 -97 39 -80 19 11 27 111 12
139 -12 21 -31 27 -44 14z"/>
<path d="M2237 1684 c-4 -4 -7 -101 -7 -214 0 -168 3 -210 14 -219 11 -9 20
-10 35 -1 20 10 21 19 20 148 -1 75 -4 171 -8 212 -5 65 -9 75 -26 78 -12 2
-24 0 -28 -4z"/>
<path d="M357 1612 c-14 -16 -17 -44 -17 -188 l0 -169 31 -17 c37 -21 35 -47
-4 -66 l-27 -13 0 -220 0 -220 25 -24 c29 -30 45 -31 76 -6 l24 19 0 447 c0
431 -1 447 -19 461 -27 19 -70 18 -89 -4z"/>
<path d="M2103 1543 c-10 -4 -13 -83 -13 -351 0 -191 4 -353 9 -360 13 -21 44
-10 52 18 4 14 7 169 8 346 1 299 0 322 -17 337 -20 18 -20 18 -39 10z"/>
<path d="M2586 1534 c-11 -28 -7 -674 4 -695 12 -21 40 -25 58 -7 16 16 17
670 2 699 -13 23 -55 25 -64 3z"/>
<path d="M33 1490 c-25 -10 -36 -74 -31 -180 l3 -65 55 0 55 0 7 45 c3 25 7
73 7 107 1 55 -2 64 -25 82 -29 23 -38 24 -71 11z"/>
<path d="M2903 1490 c-29 -12 -34 -36 -31 -150 l3 -95 55 0 55 0 8 55 c22 143
-15 220 -90 190z"/>
<path d="M215 1364 c-12 -13 -15 -49 -15 -214 0 -180 2 -200 18 -208 40 -21
42 -10 42 213 0 178 -2 214 -15 219 -8 3 -21 -2 -30 -10z"/>
<path d="M2747 1368 c-15 -8 -17 -31 -17 -196 0 -213 3 -234 34 -230 21 3 21
8 24 214 3 222 0 235 -41 212z"/>
<path d="M16 1145 c-13 -13 -16 -40 -16 -145 0 -122 1 -130 22 -144 28 -20 62
-20 81 -2 19 20 28 122 19 221 l-7 80 -41 3 c-28 2 -47 -2 -58 -13z"/>
<path d="M553 1148 c-10 -16 -17 -586 -8 -645 7 -51 27 -73 65 -73 60 0 60 -2
60 375 0 381 5 355 -70 355 -21 0 -42 -6 -47 -12z"/>
<path d="M2237 1154 c-10 -10 -8 -546 2 -562 5 -8 17 -12 27 -10 16 3 20 15
25 73 8 91 8 352 0 435 -5 55 -9 65 -26 68 -12 2 -24 0 -28 -4z"/>
<path d="M2883 1153 c-10 -3 -13 -42 -13 -143 0 -132 1 -140 22 -154 29 -21
51 -20 77 2 18 15 21 32 27 148 7 127 6 132 -14 143 -21 11 -77 14 -99 4z"/>
<path d="M757 803 c-4 -3 -7 -37 -7 -75 0 -73 14 -94 45 -68 18 15 21 101 5
131 -11 19 -31 25 -43 12z"/>
</g>
</svg>
